STARTFONT 2.1
COMMENT Converted from the supplied Pixel Font.png sprite strip
FONT -misc-pixel-font-medium-r-normal--6-60-75-75-p-50-iso10646-1
SIZE 6 75 75
FONTBOUNDINGBOX 7 6 0 0
STARTPROPERTIES 6
FONT_ASCENT 6
FONT_DESCENT 0
DEFAULT_CHAR 65
FAMILY_NAME "Pixel Font"
WEIGHT_NAME "Medium"
SPACING "P"
ENDPROPERTIES
CHARS 27
STARTCHAR SPACE
ENCODING 32
SWIDTH 640 0
DWIDTH 4 0
BBX 1 6 0 0
BITMAP
00
00
00
00
00
00
ENDCHAR
STARTCHAR A
ENCODING 65
SWIDTH 800 0
DWIDTH 5 0
BBX 4 6 0 0
BITMAP
60
90
90
F0
90
90
ENDCHAR
STARTCHAR B
ENCODING 66
SWIDTH 800 0
DWIDTH 5 0
BBX 4 6 0 0
BITMAP
E0
90
E0
90
90
E0
ENDCHAR
STARTCHAR C
ENCODING 67
SWIDTH 800 0
DWIDTH 5 0
BBX 4 6 0 0
BITMAP
60
90
80
80
90
60
ENDCHAR
STARTCHAR D
ENCODING 68
SWIDTH 800 0
DWIDTH 5 0
BBX 4 6 0 0
BITMAP
E0
90
90
90
90
E0
ENDCHAR
STARTCHAR E
ENCODING 69
SWIDTH 800 0
DWIDTH 5 0
BBX 4 6 0 0
BITMAP
F0
80
80
E0
80
F0
ENDCHAR
STARTCHAR F
ENCODING 70
SWIDTH 800 0
DWIDTH 5 0
BBX 4 6 0 0
BITMAP
F0
80
80
E0
80
80
ENDCHAR
STARTCHAR G
ENCODING 71
SWIDTH 800 0
DWIDTH 5 0
BBX 4 6 0 0
BITMAP
60
90
80
B0
90
60
ENDCHAR
STARTCHAR H
ENCODING 72
SWIDTH 800 0
DWIDTH 5 0
BBX 4 6 0 0
BITMAP
90
90
90
F0
90
90
ENDCHAR
STARTCHAR I
ENCODING 73
SWIDTH 640 0
DWIDTH 4 0
BBX 3 6 0 0
BITMAP
E0
40
40
40
40
E0
ENDCHAR
STARTCHAR J
ENCODING 74
SWIDTH 800 0
DWIDTH 5 0
BBX 4 6 0 0
BITMAP
10
10
10
10
90
60
ENDCHAR
STARTCHAR K
ENCODING 75
SWIDTH 800 0
DWIDTH 5 0
BBX 4 6 0 0
BITMAP
90
90
A0
C0
A0
90
ENDCHAR
STARTCHAR L
ENCODING 76
SWIDTH 800 0
DWIDTH 5 0
BBX 4 6 0 0
BITMAP
80
80
80
80
80
F0
ENDCHAR
STARTCHAR M
ENCODING 77
SWIDTH 1280 0
DWIDTH 8 0
BBX 7 6 0 0
BITMAP
C6
AA
AA
AA
92
82
ENDCHAR
STARTCHAR N
ENCODING 78
SWIDTH 1120 0
DWIDTH 7 0
BBX 6 6 0 0
BITMAP
C4
A4
A4
94
94
8C
ENDCHAR
STARTCHAR O
ENCODING 79
SWIDTH 800 0
DWIDTH 5 0
BBX 4 6 0 0
BITMAP
60
90
90
90
90
60
ENDCHAR
STARTCHAR P
ENCODING 80
SWIDTH 800 0
DWIDTH 5 0
BBX 4 6 0 0
BITMAP
E0
90
90
E0
80
80
ENDCHAR
STARTCHAR Q
ENCODING 81
SWIDTH 960 0
DWIDTH 6 0
BBX 5 6 0 0
BITMAP
60
90
90
90
B0
68
ENDCHAR
STARTCHAR R
ENCODING 82
SWIDTH 800 0
DWIDTH 5 0
BBX 4 6 0 0
BITMAP
E0
90
90
E0
A0
90
ENDCHAR
STARTCHAR S
ENCODING 83
SWIDTH 800 0
DWIDTH 5 0
BBX 4 6 0 0
BITMAP
70
80
80
60
10
E0
ENDCHAR
STARTCHAR T
ENCODING 84
SWIDTH 960 0
DWIDTH 6 0
BBX 5 6 0 0
BITMAP
F8
20
20
20
20
20
ENDCHAR
STARTCHAR U
ENCODING 85
SWIDTH 960 0
DWIDTH 6 0
BBX 5 6 0 0
BITMAP
88
88
88
88
88
70
ENDCHAR
STARTCHAR V
ENCODING 86
SWIDTH 960 0
DWIDTH 6 0
BBX 5 6 0 0
BITMAP
88
88
88
50
50
20
ENDCHAR
STARTCHAR W
ENCODING 87
SWIDTH 1280 0
DWIDTH 8 0
BBX 7 6 0 0
BITMAP
82
82
92
AA
AA
44
ENDCHAR
STARTCHAR X
ENCODING 88
SWIDTH 960 0
DWIDTH 6 0
BBX 5 6 0 0
BITMAP
88
88
50
20
50
88
ENDCHAR
STARTCHAR Y
ENCODING 89
SWIDTH 960 0
DWIDTH 6 0
BBX 5 6 0 0
BITMAP
88
88
50
20
20
20
ENDCHAR
STARTCHAR Z
ENCODING 90
SWIDTH 800 0
DWIDTH 5 0
BBX 4 6 0 0
BITMAP
F0
10
20
40
80
F0
ENDCHAR
ENDFONT
